<?xml version="1.0" encoding="utf-8"?>
<!-- Generator: Adobe Illustrator 18.1.1, SVG Export Plug-In . SVG Version: 6.00 Build 0)  -->
<svg version="1.1" id="Layer_1" xmlns="http://www.w3.org/2000/svg" xmlns:xlink="http://www.w3.org/1999/xlink" x="0px" y="0px"
	 viewBox="62.6 340.7 486.9 110.7" enable-background="new 62.6 340.7 486.9 110.7" xml:space="preserve">
<g>
	<g>
		<path fill="#FFFFFF" d="M196,427.5h-19.3v-35.1l-15.1,17.3l-15-17v34.9h-19.3V365h20.2l14.2,16.3L176,365h20L196,427.5L196,427.5z
			"/>
		<path fill="#FFFFFF" d="M242.2,363.5c22.2,0,29.9,7.7,29.9,29.9v5.8c0,22.2-7.7,29.9-29.9,29.9h-8.2c-22.2,0-29.9-7.7-29.9-29.9
			v-5.8c0-22.2,7.7-29.9,29.9-29.9H242.2z M235.3,381.9c-9.8,0-11.9,2.2-11.9,11.9v4.9c0,9.8,2.1,11.9,11.9,11.9h5.6
			c9.8,0,11.9-2.1,11.9-11.9v-4.9c0-9.7-2.1-11.9-11.9-11.9H235.3z"/>
		<path fill="#FFFFFF" d="M328.7,427.5l-29.2-33.4v33.4h-19.3V365h19.6l26.1,29.7V365h19.3v62.6H328.7z"/>
		<path fill="#FFFFFF" d="M387.3,365c22.2,0,32.6,7.7,32.6,29.9v2.7c0,22.2-10.4,29.9-32.6,29.9h-32.8V365H387.3z M373.8,409.3h12.1
			c10.6,0,14.7-3.3,14.7-12.1v-1.8c0-8.8-4-12.1-14.7-12.1h-12.1V409.3z"/>
		<path fill="#FFFFFF" d="M442.7,417.2l-4,10.4h-20.3l25.3-62.6h24l25.3,62.6h-20.6l-4-10.4H442.7z M455.7,383.7l-5.9,15.3h11.8
			L455.7,383.7z"/>
		<path fill="#FFFFFF" d="M523.8,407.2v20.3h-19.3v-20.3L479,365h22.4l12.8,21.9L527,365h22.5L523.8,407.2z"/>
	</g>
	<path fill="#FFFFFF" d="M62.6,451.3l44.8-110.7h9.3L71.8,451.3H62.6z"/>
</g>
</svg>
