<?xml version="1.0" encoding="utf-8"?>
<!-- Generator: Adobe Illustrator 17.1.0, SVG Export Plug-In . SVG Version: 6.00 Build 0)  -->
<!DOCTYPE svg PUBLIC "-//W3C//DTD SVG 1.1//EN" "http://www.w3.org/Graphics/SVG/1.1/DTD/svg11.dtd">
<svg version="1.1" id="Layer_1" xmlns="http://www.w3.org/2000/svg" xmlns:xlink="http://www.w3.org/1999/xlink" x="0px" y="0px"
	 viewBox="62.6 320.2 888.9 171.2" enable-background="new 62.6 320.2 888.9 171.2" xml:space="preserve">
<rect x="-57.8" y="177.3" fill="none" width="1353" height="598.5"/>
<g>
	<g>
		<path fill="#FFFFFF" d="M196,437.4h-19.3v-35.1l-15.1,17.3l-15-17v34.9h-19.3v-62.6h20.2l14.2,16.3l14.2-16.3h20L196,437.4
			L196,437.4z"/>
		<path fill="#FFFFFF" d="M242.2,373.3c22.2,0,29.9,7.7,29.9,29.9v5.8c0,22.2-7.7,29.9-29.9,29.9h-8.2c-22.2,0-29.9-7.7-29.9-29.9
			v-5.8c0-22.2,7.7-29.9,29.9-29.9H242.2z M235.3,391.7c-9.8,0-11.9,2.2-11.9,11.9v4.9c0,9.8,2.1,11.9,11.9,11.9h5.6
			c9.8,0,11.9-2.1,11.9-11.9v-4.9c0-9.7-2.1-11.9-11.9-11.9H235.3z"/>
		<path fill="#FFFFFF" d="M328.7,437.4L299.5,404v33.4h-19.3v-62.6h19.6l26.1,29.7v-29.7h19.3v62.6H328.7z"/>
		<path fill="#FFFFFF" d="M387.3,374.8c22.2,0,32.6,7.7,32.6,29.9v2.7c0,22.2-10.4,29.9-32.6,29.9h-32.8v-62.5H387.3z M373.8,419.2
			h12.1c10.6,0,14.7-3.3,14.7-12.1v-1.8c0-8.8-4-12.1-14.7-12.1h-12.1V419.2z"/>
		<path fill="#FFFFFF" d="M442.7,427l-4,10.4h-20.3l25.3-62.6h24l25.3,62.6h-20.6l-4-10.4H442.7z M455.7,393.5l-5.9,15.3h11.8
			L455.7,393.5z"/>
		<path fill="#FFFFFF" d="M523.8,417v20.3h-19.3V417L479,374.8h22.4l12.8,21.9l12.7-21.9h22.5L523.8,417z"/>
	</g>
	<path fill="#FFFFFF" d="M62.6,461.2l44.8-110.7h9.3L71.8,461.2H62.6z"/>
</g>
<g id="KslDJD.tif">
	
		<image overflow="visible" width="211" height="133" id="Layer_0_1_" xlink:href="6DFB0A3E83AFEAB9.png"  transform="matrix(0.8207 0 0 0.8207 778.33 351.274)">
	</image>
</g>
<g>
	<path fill="#FFFFFF" d="M662.8,349c36.1,0,52.7,16.4,52.7,52.4v7.7c0,20.3-7.3,29.4-23.8,29.4c-10.2,0-16.7-3.4-20.4-9
		c-4.6,6.4-11.2,9-20.6,9c-18.7,0-27.7-9.8-27.7-29.8V403c0-20,9.1-29.8,27.6-29.8c9,0,14.8,2.3,18.6,6.6v-5.2h19v38.9
		c0,8.5,2.3,12.1,6.8,12.1c4.9,0,8.3-4.1,8.3-16.9v-7c0-29.6-11.5-41-41.3-41h-10.6c-29.8,0-41.3,11.4-41.3,41v8.2
		c0,29.6,11.5,41,41.3,41H662c8.9,0,18.8-1.2,26.3-4.2l3.6,11c-7.4,3.6-19.6,4.9-29,4.9h-12.2c-36.1,0-52.7-16.4-52.7-52.4v-8.9
		c0-36,16.6-52.4,52.7-52.4H662.8z M669.4,403.3c0-8.2-3.7-11.9-12-11.9h-3.5c-8.3,0-12,3.7-12,11.9v5c0,8.2,3.7,11.9,12,11.9h3.5
		c8.3,0,12-3.7,12-11.9V403.3z"/>
</g>
</svg>
