<?xml version="1.0" encoding="UTF-8" standalone="no"?>
<svg width="512px" height="512px" viewBox="0 0 512 512" version="1.1" xmlns="http://www.w3.org/2000/svg" xmlns:xlink="http://www.w3.org/1999/xlink">
    <!-- Generator: Sketch 40.3 (33839) - http://www.bohemiancoding.com/sketch -->
    <title>arrow-left</title>
    <desc>Created with Sketch.</desc>
    <defs></defs>
    <g id="Page-1" stroke="none" stroke-width="1" fill="none" fill-rule="evenodd">
        <g id="arrow-left" fill="#000000">
            <path d="M229.29484,256 L425.855037,59.4398034 C428.92629,56.3685504 430.769042,52.0687961 430.769042,47.7690418 C430.769042,43.4692875 428.92629,39.7837838 425.855037,36.0982801 L400.670762,10.9140049 C397.599509,7.84275184 393.299754,6 389,6 C384.700246,6 381.014742,7.84275184 377.329238,10.9140049 L143.914005,244.329238 C140.842752,247.400491 139,251.700246 139,256 C139,260.299754 140.842752,263.985258 143.914005,267.670762 L377.329238,501.085995 C380.400491,504.157248 384.700246,506 389,506 C393.299754,506 396.985258,504.157248 400.670762,501.085995 L425.855037,475.90172 C428.92629,472.830467 430.769042,468.530713 430.769042,464.230958 C430.769042,459.931204 428.92629,456.2457 425.855037,452.560197 L229.29484,256 L229.29484,256 Z" id="Shape"></path>
        </g>
    </g>
</svg>