<?xml version="1.0" encoding="UTF-8"?>
<svg width="512px" height="512px" viewBox="0 0 512 512" version="1.1" xmlns="http://www.w3.org/2000/svg" xmlns:xlink="http://www.w3.org/1999/xlink">
    <!-- Generator: Sketch 42 (36781) - http://www.bohemiancoding.com/sketch -->
    <title>arrow-right</title>
    <desc>Created with Sketch.</desc>
    <defs></defs>
    <g id="Page-1" stroke="none" stroke-width="1" fill="none" fill-rule="evenodd">
        <g id="arrow-right" fill="#000000">
            <path d="M396.855037,244.329238 L163.439803,10.9140049 C160.36855,7.84275184 156.068796,6 151.769042,6 C147.469287,6 143.783784,7.84275184 140.09828,10.9140049 L114.914005,36.0982801 C111.842752,39.1695332 110,43.4692875 110,47.7690418 C110,52.0687961 111.842752,55.7542998 114.914005,59.4398034 L311.474201,256 L114.914005,452.560197 C111.842752,455.63145 110,459.931204 110,464.230958 C110,468.530713 111.842752,472.216216 114.914005,475.90172 L140.09828,501.085995 C143.169533,504.157248 147.469287,506 151.769042,506 C156.068796,506 159.7543,504.157248 163.439803,501.085995 L396.855037,267.670762 C399.92629,264.599509 401.769042,260.299754 401.769042,256 C401.769042,251.700246 399.92629,248.014742 396.855037,244.329238 L396.855037,244.329238 Z" id="Shape"></path>
        </g>
    </g>
</svg>