<?xml version="1.0" encoding="UTF-8"?>
<svg width="512px" height="512px" viewBox="0 0 512 512" version="1.1" xmlns="http://www.w3.org/2000/svg" xmlns:xlink="http://www.w3.org/1999/xlink">
    <!-- Generator: Sketch 42 (36781) - http://www.bohemiancoding.com/sketch -->
    <title>envelope</title>
    <desc>Created with Sketch.</desc>
    <defs></defs>
    <g id="Page-1" stroke="none" stroke-width="1" fill="none" fill-rule="evenodd">
        <g id="envelope" fill="#0A0B09">
            <path d="M19.0089994,439.48855 C28.0083757,447.997862 38.5002228,452.49755 50.5068164,452.49755 L461.493184,452.49755 C473.499777,452.49755 483.991624,447.997862 492.991001,439.48855 C501.500312,430.489174 506,419.997327 506,407.990733 L506,186.503609 C497.980754,195.502985 488.491312,203.499955 477.999465,210.49452 C416.986367,251.994119 370.98708,283.982001 338.999198,306.992783 C328.507351,314.989753 319.99804,320.981912 313.49354,325.4816 C306.498975,329.491223 297.989664,333.990912 286.985476,338.4906 C276.003564,342.990288 266.001782,345.485164 256.490065,345.485164 L255.487659,345.485164 C245.998218,345.485164 235.996436,342.990288 224.992248,338.4906 C213.98806,333.990912 205.501025,329.491223 198.50646,325.4816 C192.00196,320.981912 183.492649,314.989753 173.000802,306.992783 C147.495144,288.481689 101.495857,256.493807 34.0005346,210.49452 C23.5086875,203.499955 13.9969705,195.502985 6,186.503609 L6,407.990733 C6,419.997327 10.4996881,430.489174 19.0089994,439.48855 L19.0089994,439.48855 Z M21.503876,148.501292 C31.505658,162.490421 42.5098459,172.982269 54.0040987,181.001515 C60.5085984,185.501203 79.4874811,198.487927 111.007574,220.496302 C142.995456,242.994743 167.498708,259.501025 184.495055,271.485343 C185.987526,273.000089 189.997149,275.985031 195.989308,279.994654 C202.003742,284.494342 206.993496,287.991624 211.003119,290.486501 C214.990466,293.493718 220.002495,296.500936 225.504589,299.998218 C231.496748,302.98316 236.486501,305.500312 241.988595,307.505123 C247.000624,308.997594 251.500312,310 255.487659,310 L256.490065,310 C260.499688,310 264.999376,308.997594 269.989129,307.505123 C275.491223,305.500312 280.503252,302.98316 286.495411,299.998218 C291.997505,296.500936 296.987258,293.493718 300.996881,290.486501 C304.984229,287.991624 309.996258,284.494342 315.988417,279.994654 C322.002851,275.985031 325.990199,273.000089 327.504945,271.485343 C344.991357,259.501025 388.495768,229.495679 458.485966,181.001515 C471.985031,171.489798 482.989219,159.995545 492.500936,146.49648 C501.500312,132.997416 506,118.986011 506,104.484541 C506,91.987882 501.500312,81.4960349 492.500936,72.9867237 C483.991624,63.9873474 473.499777,60 461.493184,60 L50.5068164,60 C36.4954112,60 25.4912234,64.4996881 17.4942529,74.5014702 C10.0096231,83.9909115 6,95.9975051 6,110.498975 C6,122.483293 10.9897532,135.002228 21.503876,148.501292 L21.503876,148.501292 Z" id="Fill-100"></path>
        </g>
    </g>
</svg>