<?xml version="1.0" encoding="UTF-8"?>
<svg width="512px" height="512px" viewBox="0 0 512 512" version="1.1" xmlns="http://www.w3.org/2000/svg" xmlns:xlink="http://www.w3.org/1999/xlink">
    <!-- Generator: Sketch 42 (36781) - http://www.bohemiancoding.com/sketch -->
    <title>facebook</title>
    <desc>Created with Sketch.</desc>
    <defs></defs>
    <g id="Page-1" stroke="none" stroke-width="1" fill="none" fill-rule="evenodd">
        <g id="facebook" fill="#0A0B09">
            <path d="M202.50024,278.083533 L202.50024,506 L294.62698,506 L294.62698,278.083533 L371.151224,278.083533 L382.985118,189.197312 L294.62698,189.197312 L294.62698,132.068171 C294.62698,118.073932 297.867499,107.296207 303.796447,99.7590014 C309.725396,92.74988 321.031205,88.981277 338.265963,88.981277 L385.145463,88.981277 L385.145463,9.76860298 C368.990879,7.08017283 346.355257,6 316.734518,6 C282.240999,6 254.228517,16.2256361 233.753241,36.724916 C212.74988,57.1761882 202.50024,86.268843 202.50024,123.450792 L202.50024,189.197312 L126,189.197312 L126,278.083533 L202.50024,278.083533" id="Fill-22"></path>
        </g>
    </g>
</svg>