<?xml version="1.0" encoding="UTF-8"?>
<svg width="512px" height="512px" viewBox="0 0 512 512" version="1.1" xmlns="http://www.w3.org/2000/svg" xmlns:xlink="http://www.w3.org/1999/xlink">
    <!-- Generator: Sketch 42 (36781) - http://www.bohemiancoding.com/sketch -->
    <title>heart</title>
    <desc>Created with Sketch.</desc>
    <defs></defs>
    <g id="Page-1" stroke="none" stroke-width="1" fill="none" fill-rule="evenodd">
        <g id="heart" fill="#0A0B09">
            <path d="M12.5047895,210.990867 C17.0046781,224.490532 21.9946536,235.495211 27.4969926,245.007351 C32.9993317,254.497215 39.5041212,263.496993 46.4989975,272.006683 C53.4938739,281.00646 58.5061261,286.998886 62.0035643,290.496324 C64.9886389,293.993763 67.9959902,295.998663 69.4885275,297.491201 L243.491646,465.501894 C247.011361,468.999332 250.998886,470.514146 256.011138,470.514146 C261.001114,470.514146 265.010916,468.999332 268.508354,465.501894 L441.999109,298.493651 C484.503007,255.499666 506,213.998218 506,172.49677 C506,131.997772 494.015148,99.9861885 470.513255,76.4842949 C447.011361,53.494765 414.50969,42 372.495879,42 C361.001114,42 349.506349,43.9826242 337.49922,47.9924259 C325.514368,52.0022277 313.997327,57.48229 303.995099,64.4994431 C293.502785,71.0042326 284.503007,77.4867454 276.995767,83.501448 C270.000891,89.4938739 262.493651,95.4862998 256.011138,102.503453 C249.506349,95.4862998 241.999109,89.4938739 235.004233,83.501448 C227.496993,77.4867454 218.497215,71.0042326 208.004901,64.4994431 C198.002673,57.48229 186.507908,52.0022277 174.50078,47.9924259 C162.493651,43.9826242 150.998886,42 139.504121,42 C97.4903096,42 64.9886389,53.494765 41.4867454,76.4842949 C17.9848519,99.9861885 6,131.997772 6,172.49677 C6,184.993985 8.00490087,198.003564 12.5047895,210.990867" id="Fill-180"></path>
        </g>
    </g>
</svg>