<?xml version="1.0" encoding="UTF-8"?>
<svg width="512px" height="512px" viewBox="0 0 512 512" version="1.1" xmlns="http://www.w3.org/2000/svg" xmlns:xlink="http://www.w3.org/1999/xlink">
    <!-- Generator: Sketch 42 (36781) - http://www.bohemiancoding.com/sketch -->
    <title>instagram</title>
    <desc>Created with Sketch.</desc>
    <defs></defs>
    <g id="Page-1" stroke="none" stroke-width="1" fill="none" fill-rule="evenodd">
        <g id="instagram" fill="#0A0B09">
            <g id="fa-instagram" transform="translate(6.000000, 6.000000)">
                <path d="M15.4736842,490.394737 C28.4736842,502.815789 43.8421053,509.315789 61.5526316,509.315789 L437.815789,509.315789 C455.526316,509.315789 470.894737,502.815789 483.894737,490.394737 C496.289474,477.421053 502.789474,462.052632 502.789474,444.342105 L502.789474,68.0789474 C502.789474,50.3421053 496.289474,35 483.894737,22 C470.894737,9.60526316 455.526316,3.10526316 437.815789,3.10526316 L61.5526316,3.10526316 C43.8421053,3.10526316 28.4736842,9.60526316 15.4736842,22 C3.07894737,35 -3.42105263,50.3421053 -3.42105263,68.0789474 L-3.42105263,444.342105 C-3.42105263,462.052632 3.07894737,477.421053 15.4736842,490.394737 L15.4736842,490.394737 Z M52.6842105,217.5 L99.3421053,217.5 C95.2105263,231.105263 92.8684211,245.868421 92.8684211,260.631579 C92.8684211,302.578947 108.210526,338.605263 138.921053,368.736842 C169.657895,398.263158 206.868421,413.026316 249.973684,413.026316 C278.921053,413.026316 304.921053,405.947368 329.131579,392.342105 C353.342105,378.763158 372.236842,360.447368 386.421053,337.421053 C400.605263,313.789474 407.684211,288.394737 407.684211,260.631579 C407.684211,245.868421 405.315789,231.105263 401.184211,217.5 L445.5,217.5 L445.5,430.736842 C445.5,436.657895 443.710526,441.368421 439.578947,444.921053 C435.447368,449.052632 430.736842,450.815789 425.421053,450.815789 L72.7631579,450.815789 C66.8684211,450.815789 62.1315789,449.052632 58.6052632,444.921053 C54.4736842,441.368421 52.6842105,436.657895 52.6842105,430.736842 L52.6842105,217.5 L52.6842105,217.5 Z M249.973684,156.684211 C278.342105,156.684211 302.552632,166.131579 322.052632,185.605263 C342.131579,205.105263 352.157895,228.131579 352.157895,255.315789 C352.157895,282.473684 342.131579,306.105263 322.052632,325.026316 C302.552632,344.5 278.342105,353.947368 249.973684,353.947368 C222.210526,353.947368 198,344.5 178.5,325.026316 C158.421053,306.105263 148.368421,282.473684 148.368421,255.315789 C148.368421,228.131579 158.421053,205.105263 178.5,185.605263 C198,166.131579 222.210526,156.684211 249.973684,156.684211 L249.973684,156.684211 Z M342.710526,82.2368421 C342.710526,75.7368421 345.078947,70.4473684 349.210526,65.7105263 C353.947368,61.5789474 359.263158,59.2105263 365.736842,59.2105263 L423.052632,59.2105263 C428.947368,59.2105263 434.263158,61.5789474 439,65.7105263 C443.131579,70.4473684 445.5,75.7368421 445.5,82.2368421 L445.5,136.578947 C445.5,143.078947 443.131579,148.394737 439,153.131579 C434.263158,157.263158 428.947368,159.631579 423.052632,159.631579 L365.736842,159.631579 C359.263158,159.631579 353.947368,157.263158 349.210526,153.131579 C345.078947,148.394737 342.710526,143.078947 342.710526,136.578947 L342.710526,82.2368421 L342.710526,82.2368421 Z" id="Fill-46"></path>
            </g>
        </g>
    </g>
</svg>