<?xml version="1.0" encoding="UTF-8"?>
<svg width="512px" height="512px" viewBox="0 0 512 512" version="1.1" xmlns="http://www.w3.org/2000/svg" xmlns:xlink="http://www.w3.org/1999/xlink">
    <!-- Generator: Sketch 42 (36781) - http://www.bohemiancoding.com/sketch -->
    <title>linkedin</title>
    <desc>Created with Sketch.</desc>
    <defs></defs>
    <g id="Page-1" stroke="none" stroke-width="1" fill="none" fill-rule="evenodd">
        <g id="linkedin" fill="#0A0B09">
            <path d="M22.3049122,112.555071 C32.7940596,123.042506 47.3853983,128.286224 64.8586561,128.286224 L65.4558106,128.286224 C84.0974141,128.286224 98.6627895,123.042506 109.723128,112.555071 C120.80943,101.470579 126.054004,88.646834 126.054004,72.3445834 C126.054004,56.6134307 120.212275,43.2185878 109.723128,32.7311527 C99.2339807,22.2437176 84.6686053,17 66.598193,17 C48.5277807,17 33.9624052,22.2437176 22.9020667,32.7311527 C11.8157649,43.2185878 6,56.6134307 6,72.3445834 C6,88.646834 11.2445737,101.470579 22.3049122,112.555071 L22.3049122,112.555071 Z M12.4129193,494.204257 L119.641084,494.204257 L119.641084,172.572274 L12.4129193,172.572274 L12.4129193,494.204257 Z M285.727905,494.204257 L285.727905,314.723746 C285.727905,303.665213 286.896251,294.917031 289.232942,288.505158 C293.880361,277.446625 300.890435,268.127345 310.211237,260.547318 C318.934884,252.96729 330.592377,249.462825 344.586561,249.462825 C363.228165,249.462825 376.625195,255.874698 385.374805,268.698443 C394.124416,281.522188 398.771835,299.58965 398.771835,322.303773 L398.771835,494.204257 L506,494.204257 L506,310.077085 C506,262.28657 494.939661,226.177604 472.22183,201.698269 C449.478035,177.218935 419.75013,164.992247 382.466923,164.992247 C369.069893,164.992247 356.244054,166.731499 345.157753,170.235964 C334.097414,173.143372 324.776612,177.815992 316.624156,184.201905 C309.042891,190.042679 303.201163,195.857495 298.553744,201.127172 C293.880361,206.34493 289.232942,212.185705 285.130751,219.168675 L285.727905,219.168675 L285.727905,172.572274 L178.49974,172.572274 L179.070932,188.303427 L179.070932,284.429596 C179.070932,338.034926 179.070932,407.968466 178.49974,494.204257 L285.727905,494.204257 L285.727905,494.204257 Z" id="Fill-54"></path>
        </g>
    </g>
</svg>