<?xml version="1.0" encoding="UTF-8"?>
<svg width="512px" height="512px" viewBox="0 0 512 512" version="1.1" xmlns="http://www.w3.org/2000/svg" xmlns:xlink="http://www.w3.org/1999/xlink">
    <!-- Generator: Sketch 42 (36781) - http://www.bohemiancoding.com/sketch -->
    <title>medium</title>
    <desc>Created with Sketch.</desc>
    <defs></defs>
    <g id="Page-1" stroke="none" stroke-width="1" fill="none" fill-rule="evenodd">
        <g id="medium" fill="#231F1F">
            <path d="M506,116.334375 L486.225,116.334375 C478.884375,116.334375 468.5,126.925 468.5,133.70625 L468.5,379.459375 C468.5,386.246875 478.884375,395.5 486.225,395.5 L506,395.5 L506,453.834375 L326.834375,453.834375 L326.834375,395.5 L364.334375,395.5 L364.334375,137.16875 L362.496875,137.16875 L274.925,453.834375 L207.128125,453.834375 L120.6875,137.16875 L118.5,137.16875 L118.5,395.5 L156,395.5 L156,453.834375 L6,453.834375 L6,395.5 L25.20625,395.5 C33.11875,395.5 43.5,386.246875 43.5,379.459375 L43.5,133.70625 C43.5,126.925 33.11875,116.334375 25.20625,116.334375 L6,116.334375 L6,58 L193.56875,58 L255.15,287.16875 L256.84375,287.16875 L318.996875,58 L506,58 L506,116.334375" id="Imported-Layers"></path>
        </g>
    </g>
</svg>