<?xml version="1.0" encoding="UTF-8"?>
<svg width="512px" height="512px" viewBox="0 0 512 512" version="1.1" xmlns="http://www.w3.org/2000/svg" xmlns:xlink="http://www.w3.org/1999/xlink">
    <!-- Generator: Sketch 42 (36781) - http://www.bohemiancoding.com/sketch -->
    <title>phone</title>
    <desc>Created with Sketch.</desc>
    <defs></defs>
    <g id="Page-1" stroke="none" stroke-width="1" fill="none" fill-rule="evenodd">
        <g id="phone" fill="#0A0B09">
            <path d="M7.27529332,145.29037 C7.9271099,151.01502 9.82587995,158.014963 11.72465,165.638383 C13.6517599,173.290143 15.55053,179.014793 16.8258233,182.188857 C18.1011166,186.014737 20.6517032,192.362863 23.8257666,201.913393 C27.6233067,211.463923 29.5504166,217.188573 30.8257099,219.71082 C39.1009466,242.60942 48.6231367,263.60925 60.0724367,281.435017 C78.52168,311.957037 103.970867,343.130873 136.419997,375.580003 C168.840787,408.000794 200.014623,433.44998 230.564983,451.899223 C248.36241,463.348523 269.36224,472.899053 292.26084,481.17429 C294.811427,482.421244 300.536077,484.348353 310.058267,488.145894 C319.608797,491.348297 325.985263,493.870544 329.782803,495.145837 C332.956867,496.42113 338.681517,498.34824 346.333277,500.24701 C353.956697,502.14578 360.95664,504.07289 366.68129,504.696367 C373.029417,505.348183 378.782407,505.97166 385.75401,505.97166 C407.405657,505.97166 429.028963,500.24701 451.275747,488.145894 C475.44964,474.797823 490.073003,462.07323 494.5507,450.000453 C497.724763,444.275803 499.623533,436.000567 502.17412,425.82656 C504.724707,415.652553 506,407.377317 506,401.00085 C506,397.826787 505.348183,395.2762 504.724707,393.37743 C503.449413,388.928073 494.5507,383.203423 478.000227,374.928187 C473.55087,371.754123 467.174403,368.58006 458.927507,364.130703 C450.000453,359.653007 443.00051,355.20365 436.028907,351.40611 C429.028963,347.58023 423.304313,344.406167 416.927847,340.580287 C416.30437,339.95681 413.130307,338.0297 408.029133,334.23216 C402.92796,331.029757 399.13042,328.50751 395.30454,326.5804 C392.130477,325.305107 388.956413,324.029814 385.75401,324.029814 C380.681177,324.029814 374.956527,327.855693 367.956583,334.23216 C360.333163,341.203764 353.956697,348.203707 348.232047,356.478943 C342.507397,364.130703 336.15927,371.754123 329.159327,378.10225 C322.78286,385.102194 317.05821,388.304597 313.26067,388.304597 C310.710083,388.304597 308.159497,387.65278 304.985433,386.377487 C301.81137,385.75401 299.260783,384.478717 297.98549,383.8269 C296.08672,382.551607 293.536133,381.304653 289.086777,378.754067 C285.260897,376.20348 282.71031,374.928187 282.71031,374.928187 C250.26118,356.478943 222.289747,336.13093 199.391147,312.580514 C175.84073,289.681914 155.492717,261.71048 137.043473,229.26135 C137.043473,229.26135 135.76818,226.710763 133.217593,222.913223 C130.695347,218.435527 129.420053,215.91328 128.14476,213.98617 C127.492943,212.739217 126.24599,210.18863 125.594173,206.986227 C124.31888,203.812163 123.695403,201.261577 123.695403,198.73933 C123.695403,194.91345 126.869467,189.1888 133.86941,182.840673 C140.217537,175.84073 147.869297,169.464263 155.492717,163.739613 C163.767953,158.014963 170.767897,151.666837 177.76784,144.015077 C184.115967,137.015133 187.941847,131.290483 187.941847,126.21765 C187.941847,123.043587 186.666553,119.841183 185.39126,116.66712 C183.49249,112.86958 180.941903,109.0437 177.76784,103.942527 C173.94196,98.8696934 172.04319,95.6672901 171.391373,95.0438134 C167.565493,88.6956867 164.39143,82.9710367 160.59389,75.9710934 C156.76801,68.97115 152.318653,61.9712067 147.869297,53.0724933 C143.41994,44.7972567 140.217537,38.4207901 137.043473,33.9714334 C128.768237,17.4493 123.043587,8.52224678 118.59423,7.27529332 C116.69546,6.62347673 114.144873,6 110.97081,6 C104.594343,6 96.3474466,7.27529332 86.1451,9.7975401 C75.9710934,12.3481267 67.7241966,14.2468968 61.9995466,17.4493 C49.89843,21.8986567 37.1738366,36.5220201 23.8257666,60.6959134 C11.72465,82.9710367 6,104.594343 6,126.21765 C6,133.217593 6.65181658,138.942243 7.27529332,145.29037" id="Fill-147"></path>
        </g>
    </g>
</svg>