<?xml version="1.0" encoding="UTF-8"?>
<svg width="512px" height="512px" viewBox="0 0 512 512" version="1.1" xmlns="http://www.w3.org/2000/svg" xmlns:xlink="http://www.w3.org/1999/xlink">
    <!-- Generator: Sketch 42 (36781) - http://www.bohemiancoding.com/sketch -->
    <title>spotify</title>
    <desc>Created with Sketch.</desc>
    <defs></defs>
    <g id="Page-1" stroke="none" stroke-width="1" fill="none" fill-rule="evenodd">
        <g id="spotify" fill="#0A0B09">
            <path d="M130.272198,472.157205 C168.767727,494.901019 210.200457,506 255.714078,506 C301.227698,506 343.232273,494.901019 381.155958,472.157205 C419.651487,449.985236 449.985236,419.651487 472.157205,381.129965 C494.927012,343.20628 506,301.201705 506,255.688085 C506,210.772302 494.927012,168.767727 472.157205,130.272198 C449.985236,92.3485132 419.651487,61.9887711 381.155958,39.2449574 C343.232273,17.0729881 301.227698,6 255.714078,6 C210.200457,6 168.767727,17.0729881 130.272198,39.2449574 C92.3485132,61.9887711 62.014764,92.3485132 39.2709503,130.272198 C17.0989811,168.767727 6,210.772302 6,255.688085 C6,301.201705 17.0989811,343.20628 39.2709503,381.129965 C62.014764,419.651487 92.3485132,449.985236 130.272198,472.157205 L130.272198,472.157205 Z M88.2676232,160.00811 C91.1788314,156.525057 95.8575587,153.587856 100.510293,151.84633 C135.52277,141.917031 174.616136,136.666459 218.960075,136.666459 C257.455604,136.666459 294.807444,140.773342 330.96361,148.935122 C367.145768,157.096902 399.221044,168.767727 426.643585,184.519443 C435.403202,189.770015 439.484092,197.35995 439.484092,207.263256 C439.484092,214.281347 437.144729,220.103764 432.491994,224.184654 C427.813267,228.863381 421.99085,231.202745 415.570597,231.202745 C411.489707,231.202745 407.408817,229.435226 402.730089,227.121855 C379.986276,213.68351 352.563735,203.780204 319.890622,196.190268 C287.217509,188.600333 253.972551,185.091287 219.531919,185.091287 C181.608235,185.091287 148.363277,189.19817 119.19921,197.35995 C113.350801,199.101476 108.672073,199.699314 106.358702,199.699314 C99.9384487,199.699314 94.0900395,197.35995 89.4373051,192.681223 C85.3564151,188.600333 83.0170514,182.777916 83.0170514,175.759825 C83.0170514,169.339572 84.7585777,164.089 88.2676232,160.00811 L88.2676232,160.00811 Z M115.690164,236.453317 C148.363277,227.121855 181.03639,222.443127 214.281347,222.443127 C281.3691,222.443127 340.892909,237.622999 392.228946,268.528592 C399.818881,273.20732 403.899771,279.627573 403.899771,288.361198 C403.899771,293.61177 402.158245,298.290497 398.077355,301.799543 C394.568309,305.880433 389.889582,307.621959 384.63901,307.621959 C381.155958,307.621959 377.075068,306.452277 371.824496,303.541069 C326.88272,276.690372 273.805157,263.27802 213.111666,263.27802 C185.11728,263.27802 157.694739,266.787066 131.44188,273.779164 C125.021626,275.546683 120.940736,276.690372 119.19921,276.690372 C113.948638,276.690372 109.269911,274.948846 105.760865,270.867956 C101.679975,267.35891 99.9384487,262.706176 99.9384487,256.857767 C99.9384487,245.784779 105.189021,238.766687 115.690164,236.453317 L115.690164,236.453317 Z M123.851944,315.211894 C157.694739,307.621959 188.626326,304.112913 217.192556,304.112913 C272.635475,304.112913 321.060304,316.381576 363.064878,341.464754 C369.485132,345.545644 372.39634,350.796215 372.39634,357.788314 C372.39634,362.467041 371.226658,365.976087 368.31545,368.887295 C364.806405,371.798503 361.323352,373.540029 357.216469,373.540029 C354.305261,373.540029 350.796215,372.39634 346.715325,370.056977 C309.389478,347.885007 266.215221,336.786026 217.192556,336.786026 C193.27906,336.786026 167.026201,339.723227 138.433978,345.545644 C131.44188,347.28717 127.36099,347.885007 126.191308,347.885007 C121.512581,347.885007 117.431691,346.117488 114.520482,343.20628 C111.609274,340.295072 110.439592,336.214182 110.439592,332.133292 C110.439592,322.80183 115.092327,316.953421 123.851944,315.211894 L123.851944,315.211894 Z" id="Fill-208"></path>
        </g>
    </g>
</svg>