<?xml version="1.0" encoding="UTF-8" standalone="no"?>
<svg width="512px" height="512px" viewBox="0 0 512 512" version="1.1" xmlns="http://www.w3.org/2000/svg" xmlns:xlink="http://www.w3.org/1999/xlink" xmlns:sketch="http://www.bohemiancoding.com/sketch/ns">
    <!-- Generator: Sketch 3.3.2 (12043) - http://www.bohemiancoding.com/sketch -->
    <title>twitter</title>
    <desc>Created with Sketch.</desc>
    <defs></defs>
    <g id="Page-1" stroke="none" stroke-width="1" fill="none" fill-rule="evenodd" sketch:type="MSPage">
        <g id="twitter" sketch:type="MSArtboardGroup" fill="#000000">
            <path d="M506,101.092247 C487.60995,109.248242 467.829318,114.763695 447.079966,117.247992 C468.25118,104.545264 484.516296,84.4521421 492.187932,60.4997656 C472.360426,72.2493985 450.407987,80.7960064 427.049342,85.3896128 C408.331177,65.4527359 381.67576,53 352.176682,53 C295.522202,53 249.601762,98.92044 249.601762,155.57492 C249.601762,163.621543 250.507984,171.449423 252.257929,178.949189 C167.010593,174.668073 91.4192056,133.825599 40.8270367,71.7650386 C31.9991875,86.920815 26.9368457,104.52964 26.9368457,123.341552 C26.9368457,158.93419 45.0456548,190.323834 72.5760445,208.729508 C55.7640699,208.198275 39.952064,203.589044 26.1087466,195.901784 C26.0931221,196.323646 26.0931221,196.761132 26.0931221,197.198619 C26.0931221,246.900191 61.4513921,288.35202 108.371801,297.773601 C99.7626949,300.117278 90.7004781,301.367239 81.3413956,301.367239 C74.7322271,301.367239 68.3105528,300.726634 62.0451236,299.523546 C75.0915909,340.272273 112.981032,369.927596 157.870254,370.755695 C122.761976,398.27046 78.5289835,414.660573 30.4679854,414.660573 C22.1869942,414.660573 14.030999,414.176213 6,413.223118 C51.3892066,442.331583 105.309397,459.315428 163.245086,459.315428 C351.92669,459.315428 455.095341,303.007812 455.095341,167.449548 C455.095341,162.996563 455.001594,158.574826 454.798475,154.184338 C474.844724,139.71604 492.234805,121.654105 505.984375,101.092247 L506,101.092247 Z" id="Shape" sketch:type="MSShapeGroup"></path>
        </g>
    </g>
</svg>