<?xml version="1.0" encoding="UTF-8"?>
<svg width="512px" height="512px" viewBox="0 0 512 512" version="1.1" xmlns="http://www.w3.org/2000/svg" xmlns:xlink="http://www.w3.org/1999/xlink">
    <!-- Generator: Sketch 42 (36781) - http://www.bohemiancoding.com/sketch -->
    <title>youtube</title>
    <desc>Created with Sketch.</desc>
    <defs></defs>
    <g id="Page-1" stroke="none" stroke-width="1" fill="none" fill-rule="evenodd">
        <g id="youtube" fill="#0A0B09">
            <g id="fa-youtube-play" transform="translate(6.000000, 82.000000)">
                <path d="M8.19565217,251.604 C9.65217391,266.2635 11.6086957,279.9225 14.0434783,291.64575 C16.9782609,304.82625 23.326087,316.04925 33.0869565,325.3365 C42.8478261,334.1235 54.0652174,339.474 67.2391304,340.953 C107.23913,345.3465 168.23913,347.7825 249.717391,347.7825 C331.217391,347.7825 392.217391,345.3465 432.217391,340.953 C445.391304,339.474 456.608696,334.1235 466.369565,325.3365 C475.652174,316.04925 482,304.82625 484.913043,291.64575 C487.847826,279.9225 489.804348,266.2635 491.26087,251.604 C492.23913,236.466 493.217391,224.26425 493.217391,214.4985 C493.695652,204.25425 493.695652,191.07375 493.695652,173.49975 C493.695652,155.92575 493.695652,142.245 493.217391,132.47925 C493.217391,122.7135 492.23913,110.51175 491.26087,95.3955 C489.804348,80.2575 487.847826,67.077 485.413043,55.35375 C482.478261,42.17325 476.130435,30.95025 466.369565,21.663 C456.608696,12.3975 445.391304,7.50375 432.217391,6.0465 C392.217391,1.1745 331.217391,-0.783 249.717391,-0.783 C168.23913,-0.783 107.23913,1.1745 67.2391304,6.0465 C54.0652174,7.50375 42.8478261,12.3975 33.0869565,21.663 C23.8043478,30.95025 17.4565217,42.17325 14.5434783,55.35375 C11.6086957,67.077 9.65217391,80.2575 8.19565217,95.3955 C7.2173913,110.51175 6.23913043,122.7135 6.23913043,132.47925 C5.76086957,142.245 5.76086957,155.92575 5.76086957,173.49975 C5.76086957,191.07375 5.76086957,204.25425 6.23913043,214.4985 C6.23913043,224.26425 7.2173913,236.466 8.19565217,251.604 L8.19565217,251.604 Z M179.956522,86.10825 C179.956522,79.27875 182.869565,74.385 188.73913,70.97025 C195.086957,67.5555 200.934783,68.05575 206.782609,71.4705 L345.847826,158.84025 C351.717391,161.7765 354.152174,166.67025 354.152174,173.49975 C354.152174,179.85075 351.717391,185.223 345.847826,188.1375 L206.782609,275.0505 C203.869565,276.98625 200.934783,277.965 197.521739,277.965 C194.586957,277.965 191.652174,277.4865 188.73913,276.0075 C182.869565,272.59275 179.956522,267.2205 179.956522,260.391 L179.956522,86.10825 L179.956522,86.10825 Z" id="Fill-85"></path>
            </g>
        </g>
    </g>
</svg>